# File produced by Open Asset Import Library (http://www.assimp.sf.net)
# (assimp v3.1.267422042)

mtllib running_wall.mtl

# vertex positions
v -15.047945 -200.248230 -314.914764
v 15.047945 -200.248230 -314.914764
v 15.047945 -200.248123 314.914795
v -15.047945 -200.248123 314.914795
v -17.523521 -181.546768 -319.999969
v -17.523521 -139.814957 -319.999969
v 17.523521 -139.814957 -319.999969
v 17.523521 -181.546768 -319.999969
v 17.523521 -139.814865 320.000031
v 17.523521 -181.546661 320.000031
v -17.523521 -181.546661 320.000031
v -17.523521 -139.814865 320.000031
v 15.047945 -188.885666 314.914795
v -15.047945 -188.885666 314.914795
v -15.047945 -188.885757 -314.914764
v 15.047945 -188.885757 -314.914764
v -15.047945 -132.475967 -314.914764
v 15.047945 -132.475967 -314.914764
v 15.047945 -132.475861 314.914795
v -15.047945 -132.475861 314.914795
v -15.047945 200.248123 -314.914795
v -15.047945 200.248230 314.914764
v 15.047945 200.248230 314.914764
v 15.047945 200.248123 -314.914795
v -17.523521 181.546661 -320.000031
v 17.523521 181.546661 -320.000031
v 17.523521 139.814865 -320.000031
v -17.523521 139.814865 -320.000031
v 17.523521 181.546768 319.999969
v 17.523521 139.814957 319.999969
v -17.523521 181.546768 319.999969
v -17.523521 139.814957 319.999969
v -15.047945 188.885757 314.914764
v 15.047945 188.885757 314.914764
v -15.047945 188.885666 -314.914795
v 15.047945 188.885666 -314.914795
v 15.047945 132.475861 -314.914795
v -15.047945 132.475861 -314.914795
v 15.047945 132.475967 314.914764
v -15.047945 132.475967 314.914764

# UV coordinates
vt 0.000414 0.804045
vt 0.000414 0.687294
vt 0.486707 0.687294
vt 0.486707 0.804045
vt 0.772119 0.246787
vt 0.772119 0.300751
vt 0.636160 0.300751
vt 0.636160 0.246787
vt 0.000414 0.968423
vt 0.000414 0.914459
vt 0.494559 0.914459
vt 0.494559 0.968423
vt 0.494559 0.804874
vt 0.494559 0.858838
vt 0.000414 0.858838
vt 0.000414 0.804874
vt 0.636160 0.245958
vt 0.636160 0.191995
vt 0.772119 0.191995
vt 0.772119 0.245958
vt 0.721867 0.722697
vt 0.721867 0.737389
vt 0.605116 0.737390
vt 0.605116 0.722697
vt 0.605117 0.000414
vt 0.619809 0.000414
vt 0.619809 0.486704
vt 0.605116 0.486704
vt 0.000414 0.999467
vt 0.000415 0.984774
vt 0.486704 0.984774
vt 0.486704 0.999467
vt 0.651682 0.301580
vt 0.666375 0.301580
vt 0.666375 0.418331
vt 0.651682 0.418331
vt 0.721872 0.301580
vt 0.721872 0.437538
vt 0.711602 0.427934
vt 0.711602 0.311183
vt 0.970924 0.487536
vt 0.970924 0.981676
vt 0.957422 0.977750
vt 0.957422 0.491462
vt 0.885768 0.981676
vt 0.885768 0.487536
vt 0.899270 0.491462
vt 0.899270 0.977750
vt 0.712323 0.055207
vt 0.712323 0.191165
vt 0.702052 0.181562
vt 0.702052 0.064811
vt 0.713152 0.191165
vt 0.713152 0.055207
vt 0.723422 0.064811
vt 0.723422 0.181562
vt 0.985255 0.487536
vt 0.985255 0.981676
vt 0.971753 0.977750
vt 0.971753 0.491462
vt 0.928760 0.981676
vt 0.928761 0.487536
vt 0.942262 0.491462
vt 0.942262 0.977750
vt 0.710773 0.301580
vt 0.710773 0.437538
vt 0.700503 0.427934
vt 0.700502 0.311183
vt 0.487536 0.486707
vt 0.487536 0.000414
vt 0.604287 0.000415
vt 0.604287 0.486707
vt 0.772119 0.054378
vt 0.636160 0.054378
vt 0.636160 0.000414
vt 0.772119 0.000415
vt 0.494559 0.913630
vt 0.000414 0.913630
vt 0.000414 0.859667
vt 0.494559 0.859667
vt 0.884939 0.487536
vt 0.884939 0.981681
vt 0.830975 0.981681
vt 0.830975 0.487536
vt 0.636160 0.191166
vt 0.636160 0.055207
vt 0.690124 0.055207
vt 0.690124 0.191166
vt 0.487536 0.722697
vt 0.604287 0.722697
vt 0.604287 0.737390
vt 0.487536 0.737390
vt 0.635331 0.000415
vt 0.635331 0.486704
vt 0.620639 0.486704
vt 0.620638 0.000414
vt 0.486704 0.983945
vt 0.000414 0.983945
vt 0.000415 0.969252
vt 0.486704 0.969252
vt 0.636160 0.418331
vt 0.636161 0.301580
vt 0.650853 0.301580
vt 0.650853 0.418331
vt 0.677475 0.437538
vt 0.667204 0.427934
vt 0.667204 0.311183
vt 0.677475 0.301580
vt 0.927931 0.981676
vt 0.914430 0.977750
vt 0.914430 0.491462
vt 0.927931 0.487536
vt 0.999586 0.981676
vt 0.986084 0.977750
vt 0.986084 0.491462
vt 0.999586 0.487536
vt 0.699673 0.437538
vt 0.689403 0.427934
vt 0.689403 0.311183
vt 0.699673 0.301580
vt 0.701223 0.191165
vt 0.690953 0.181561
vt 0.690953 0.064811
vt 0.701223 0.055207
vt 0.913601 0.981676
vt 0.900099 0.977750
vt 0.900099 0.491462
vt 0.913601 0.487536
vt 0.956593 0.981676
vt 0.943092 0.977750
vt 0.943091 0.491462
vt 0.956593 0.487536
vt 0.688574 0.437538
vt 0.678304 0.427934
vt 0.678304 0.311183
vt 0.688574 0.301580
vt 0.000415 0.343854
vt 0.486707 0.343854
vt 0.486707 0.686465
vt 0.000414 0.686465
vt 0.830146 0.605116
vt 0.830146 0.721868
vt 0.487536 0.721868
vt 0.487536 0.605116
vt 0.486707 0.343025
vt 0.000414 0.343025
vt 0.000415 0.000414
vt 0.486707 0.000415
vt 0.830146 0.487536
vt 0.830146 0.604287
vt 0.487536 0.604287
vt 0.487536 0.487536

# vertex normals
vn 0.000000 -1.000000 0.000000
vn 0.000000 -0.000000 -1.000000
vn 1.000000 0.000000 0.000000
vn -1.000000 0.000000 0.000000
vn 0.000000 0.000000 1.000000
vn 0.000000 0.569540 -0.821964
vn 0.947545 0.319623 -0.000000
vn -0.947545 0.319623 -0.000000
vn 0.000000 0.569540 0.821963
vn 0.000000 -0.569541 0.821963
vn -0.947545 -0.319623 0.000000
vn 0.947545 -0.319623 0.000000
vn 0.000000 -0.569541 -0.821963
vn 0.000000 1.000000 -0.000000
vn 0.000000 -0.569541 -0.821963
vn 0.947545 -0.319623 0.000000
vn -0.947545 -0.319623 0.000000
vn 0.000000 -0.569540 0.821963
vn 0.000000 0.569541 0.821963
vn -0.947545 0.319623 -0.000000
vn 0.947545 0.319623 -0.000000
vn 0.000000 0.569541 -0.821963

# Mesh
g Cube
usemtl Material
f 2/2/1 3/3/1 4/4/1 1/1/1
f 7/7/2 8/8/2 5/5/2 6/6/2
f 7/10/3 9/11/3 10/12/3 8/9/3
f 12/14/4 6/15/4 5/16/4 11/13/4
f 10/17/5 9/18/5 12/19/5 11/20/5
f 3/21/5 13/22/5 14/23/5 4/24/5
f 14/26/4 15/27/4 1/28/4 4/25/4
f 16/30/3 13/31/3 3/32/3 2/29/3
f 16/35/2 2/36/2 1/33/2 15/34/2
f 18/40/6 7/37/6 6/38/6 17/39/6
f 9/41/7 7/42/7 18/43/7 19/44/7
f 20/47/8 17/48/8 6/45/8 12/46/8
f 9/50/9 19/51/9 20/52/9 12/49/9
f 13/56/10 10/53/10 11/54/10 14/55/10
f 15/59/11 14/60/11 11/57/11 5/58/11
f 8/61/12 10/62/12 13/63/12 16/64/12
f 8/66/13 16/67/13 15/68/13 5/65/13
f 23/71/14 24/72/14 21/69/14 22/70/14
f 26/74/2 27/75/2 28/76/2 25/73/2
f 26/77/3 29/78/3 30/79/3 27/80/3
f 31/81/4 25/82/4 28/83/4 32/84/4
f 30/88/5 29/85/5 31/86/5 32/87/5
f 34/92/5 23/89/5 22/90/5 33/91/5
f 22/93/4 21/94/4 35/95/4 33/96/4
f 24/97/3 23/98/3 34/99/3 36/100/3
f 24/102/2 36/103/2 35/104/2 21/101/2
f 27/105/15 37/106/15 38/107/15 28/108/15
f 27/112/16 30/109/16 39/110/16 37/111/16
f 38/114/17 40/115/17 32/116/17 28/113/17
f 39/119/18 30/120/18 32/117/18 40/118/18
f 29/121/19 34/122/19 33/123/19 31/124/19
f 33/126/20 35/127/20 25/128/20 31/125/20
f 29/132/21 26/129/21 36/130/21 34/131/21
f 36/135/22 26/136/22 25/133/22 35/134/22
f 40/139/4 38/140/4 17/137/4 20/138/4
f 37/144/2 18/141/2 17/142/2 38/143/2
f 37/147/3 39/148/3 19/145/3 18/146/3
f 19/150/5 39/151/5 40/152/5 20/149/5
